<svg width="64" height="64" viewBox="0 0 64 64" fill="none" xmlns="http://www.w3.org/2000/svg">
<path d="M56.364 32H48.364C47.3031 32 46.2857 32.4214 45.5355 33.1716C44.7854 33.9217 44.364 34.9391 44.364 36V46C44.364 47.0609 44.7854 48.0783 45.5355 48.8284C46.2857 49.5786 47.3031 50 48.364 50H52.364C53.4248 50 54.4422 49.5786 55.1924 48.8284C55.9425 48.0783 56.364 47.0609 56.364 46V32ZM56.364 32C56.364 28.833 55.7371 25.6973 54.5196 22.7736C53.3021 19.8499 51.518 17.1962 49.2701 14.9652C47.0221 12.7343 44.3549 10.9703 41.4221 9.77503C38.4893 8.57971 35.3489 7.97668 32.182 8.00069C29.015 7.97668 25.8746 8.57971 22.9418 9.77503C20.009 10.9703 17.3418 12.7343 15.0939 14.9652C12.846 17.1962 11.0619 19.8499 9.84434 22.7736C8.62683 25.6973 8 28.833 8 32V46C8 47.0609 8.42143 48.0783 9.17157 48.8284C9.92172 49.5786 10.9391 50 12 50H16C17.0609 50 18.0783 49.5786 18.8284 48.8284C19.5786 48.0783 20 47.0609 20 46V36C20 34.9391 19.5786 33.9217 18.8284 33.1716C18.0783 32.4214 17.0609 32 16 32H8" stroke="#049FD6" stroke-width="2" stroke-linecap="round" stroke-linejoin="round"/>
<path d="M56.364 46V52C56.364 54.1217 55.5211 56.1566 54.0208 57.6569C52.5205 59.1571 50.4857 60 48.364 60H34" stroke="#049FD6" stroke-width="2" stroke-linecap="round" stroke-linejoin="round"/>
</svg>
