<svg width="64" height="64" viewBox="0 0 64 64" fill="none" xmlns="http://www.w3.org/2000/svg">
<path d="M32 32L56 8" stroke="#049FD6" stroke-width="2" stroke-linecap="round" stroke-linejoin="round"/>
<path d="M48.9705 15.0295C44.7192 10.7865 39.0301 8.29376 33.0289 8.04437C27.0277 7.79499 21.1515 9.80713 16.5628 13.6827C11.974 17.5583 9.00709 23.0151 8.24887 28.9734C7.49066 34.9318 8.99643 40.9577 12.4683 45.859C15.9401 50.7603 21.1251 54.18 26.9975 55.4416C32.87 56.7031 39.002 55.7146 44.1805 52.6716C49.359 49.6286 53.2067 44.7528 54.9625 39.0088C56.7183 33.2647 56.2542 27.0709 53.662 21.6527" stroke="#049FD6" stroke-width="2" stroke-linecap="round" stroke-linejoin="round"/>
<path d="M40.4853 23.5147C38.5014 21.5309 35.8851 20.3049 33.0911 20.0499C30.2971 19.7949 27.5021 20.527 25.1918 22.1189C22.8815 23.7108 21.2021 26.0619 20.4454 28.7636C19.6887 31.4652 19.9026 34.3466 21.0499 36.9069C22.1972 39.4672 24.2053 41.5446 26.7253 42.778C29.2452 44.0114 32.1177 44.3228 34.8434 43.658C37.5692 42.9933 39.9758 41.3945 41.6451 39.1396C43.3144 36.8846 44.1408 34.116 43.9806 31.3149" stroke="#049FD6" stroke-width="2" stroke-linecap="round" stroke-linejoin="round"/>
</svg>
