<svg width="64" height="64" viewBox="0 0 64 64" fill="none" xmlns="http://www.w3.org/2000/svg">
<g clip-path="url(#clip0_331_1505)">
<path d="M27.7444 45.6548L27.7548 45.636L27.7635 45.6164L41.5751 14.5538L41.744 14.1919C41.9007 13.9645 42.1407 13.8333 42.4 13.8333C42.8565 13.8333 43.2116 14.1748 43.2323 14.6248L36.7417 48.8871L36.7256 48.9352L36.7165 48.9627L36.7105 48.9911C36.2515 51.1894 34.2931 52.8333 31.9733 52.8333C29.2895 52.8333 27.1133 50.6571 27.1133 47.9733C27.1133 47.139 27.3509 46.3681 27.7444 45.6548ZM10.2165 26.6798L10.2159 26.6803C8.92075 27.7442 7.02438 27.6506 5.84687 26.4731C4.47895 25.1051 4.57599 22.8354 6.05103 21.6127C15.3866 13.9846 27.261 11.1028 38.5356 12.9443L35.7729 19.1661C26.8478 18.1424 17.5842 20.6469 10.2165 26.6798ZM57.9238 21.614L57.924 21.6141C59.4238 22.837 59.5207 25.1054 58.1531 26.4731C56.984 27.6422 55.1127 27.7264 53.7533 26.6503C51.2097 24.5743 48.4675 22.9468 45.5525 21.6962L46.7815 15.1571C50.7407 16.6754 54.5006 18.82 57.9238 21.614ZM47.0952 32.3262L47.0952 32.3263L47.0999 32.3296C48.6865 33.4402 48.8091 35.8171 47.4064 37.2197C46.2976 38.3285 44.548 38.5135 43.2326 37.5991C43.0387 37.445 42.8339 37.3049 42.6338 37.1745L43.9142 30.3767C45.0152 30.9552 46.0751 31.5944 47.0952 32.3262ZM20.8593 37.4841L20.858 37.485C19.4956 38.4481 17.7157 38.3419 16.5669 37.1931C15.1735 35.7997 15.3011 33.4411 16.8812 32.2707C21.4008 29.0255 26.7338 27.4472 32.0621 27.4491L29.0674 34.1872C26.1836 34.65 23.3557 35.7313 20.8593 37.4841Z" stroke="#049FD6"/>
</g>
<defs>
<clipPath id="clip0_331_1505">
<rect width="64" height="64" fill="white"/>
</clipPath>
</defs>
</svg>
