<svg width="64" height="64" viewBox="0 0 64 64" fill="none" xmlns="http://www.w3.org/2000/svg">
<g id="Icon">
<g id="Group">
<path id="XMLID 4" d="M15.6445 19.9328C15.6445 11.1311 22.78 4 31.5773 4C40.379 4 47.5101 11.1354 47.5101 19.9328" stroke="#049FD6" stroke-width="2" stroke-miterlimit="10" stroke-linecap="round" stroke-linejoin="round"/>
<path id="XMLID 3" d="M45.1102 29.149H47.2988C49.2715 29.149 50.8686 27.5518 50.8686 25.5791V23.4122C50.8686 21.4394 49.2715 19.8423 47.2988 19.8423H45.1102V29.149ZM45.1102 29.149V30.8195C45.1102 35.447 41.359 39.1982 36.7316 39.1982H35.061" stroke="#049FD6" stroke-width="2" stroke-miterlimit="10" stroke-linecap="round" stroke-linejoin="round"/>
<path id="XMLID 2" d="M18.0402 29.149H15.8516C13.8789 29.149 12.2817 27.5518 12.2817 25.5791V23.4122C12.2817 21.4394 13.8789 19.8423 15.8516 19.8423H18.0402V29.149Z" stroke="#049FD6" stroke-width="2" stroke-miterlimit="10" stroke-linecap="round" stroke-linejoin="round"/>
<path id="XMLID 1" d="M35.4926 39.1939H33.0191C32.3932 39.1939 31.8882 38.6845 31.8882 38.0629V37.3766C31.8882 36.7507 32.3975 36.2456 33.0191 36.2456H35.4926C36.1185 36.2456 36.6236 36.755 36.6236 37.3766V38.0629C36.6279 38.6888 36.1185 39.1939 35.4926 39.1939Z" stroke="#049FD6" stroke-width="2" stroke-miterlimit="10" stroke-linecap="round" stroke-linejoin="round"/>
<path id="Vector" d="M40.7285 59.9998H53.8641L52.1288 48.5866C51.7446 46.67 50.7043 44.9261 49.1935 43.6743C48.2265 42.88 47.251 42.3706 46.3143 42.1634L41.6954 40.9504" stroke="#049FD6" stroke-width="2" stroke-miterlimit="10" stroke-linecap="round" stroke-linejoin="round"/>
<path id="Vector_2" d="M21.0878 59.7149H9.3335L11.0688 48.5866C11.4487 46.6743 12.489 44.9304 14.0084 43.6742C14.9711 42.88 15.9509 42.3663 16.9092 42.1548L24.308 40.0051C24.4677 39.9576 24.6231 39.8885 24.7612 39.7936C25.154 39.5302 25.4087 39.1072 25.4648 38.641L25.8059 35.7057C24.8821 34.9891 24.0749 34.1128 23.3885 33.1157C22.8619 32.3516 22.4432 31.5142 22.0849 30.6595L21.4547 29.1487" stroke="#049FD6" stroke-width="2" stroke-miterlimit="10" stroke-linecap="round" stroke-linejoin="round"/>
<path id="Vector_3" d="M33.0276 18.0031C33.0276 18.0031 31.2405 24.2018 20.859 23.0493C20.5654 21.7629 20.5309 20.4291 20.8072 19.1384C21.2561 17.0405 22.1842 15.0635 23.5871 13.4188C25.7195 10.9195 28.6505 9.37842 31.8837 9.37842C35.5658 9.37842 38.8551 11.377 41.0178 14.5066C41.4192 15.085 41.7559 15.711 42.0624 16.3455L42.9128 18.1067" stroke="#049FD6" stroke-width="2" stroke-miterlimit="10" stroke-linecap="round" stroke-linejoin="round"/>
<path id="Vector_4" d="M31.5771 60.0003V48.7424" stroke="#049FD6" stroke-width="2" stroke-miterlimit="10" stroke-linecap="round" stroke-linejoin="round"/>
<path id="Vector_5" d="M31.5771 48.7424L35.8938 44.4258" stroke="#049FD6" stroke-width="2" stroke-miterlimit="10" stroke-linecap="round" stroke-linejoin="round"/>
<path id="Vector_6" d="M31.5769 48.7424L27.2603 44.4258" stroke="#049FD6" stroke-width="2" stroke-miterlimit="10" stroke-linecap="round" stroke-linejoin="round"/>
<path id="Vector_7" d="M32.5098 15.7544C32.5098 15.7544 33.2781 22.7949 42.205 22.5531" stroke="#049FD6" stroke-width="2" stroke-miterlimit="10" stroke-linecap="round" stroke-linejoin="round"/>
</g>
</g>
</svg>
