<svg width="64" height="64" viewBox="0 0 64 64" fill="none" xmlns="http://www.w3.org/2000/svg">
<g id="Icon">
<g id="Group">
<g id="Group_2">
<g id="Group_3">
<g id="Group_4">
<g id="Group_5">
<path id="Vector" d="M29.7035 46.8467L28.733 43.4201C27.8584 40.333 25.6818 37.777 22.7704 36.4271L20.3662 35.3129C18.9444 34.6539 17.8821 33.4079 17.4547 31.9022L16.2926 27.8007L16.3844 27.1098C16.5681 25.7319 15.9252 24.3701 14.743 23.6392L14.6831 23.6033" stroke="#049FD6" stroke-width="2" stroke-miterlimit="10" stroke-linecap="round" stroke-linejoin="round"/>
<path id="Vector_2" d="M17.8702 40.0217C17.6985 40.0457 17.5307 40.0657 17.363 40.0776C14.5993 40.3213 11.9036 39.0592 10.1943 36.8707C6.67579 32.3697 4 35.1813 4 35.1813C4 35.1813 6.90344 38.6599 8.87634 42.0945C10.2861 44.5426 12.5745 46.4077 15.3142 47.0906C15.482 47.1345 15.6577 47.1705 15.8334 47.2104C17.6306 47.5818 19.1282 48.752 19.9629 50.3335" stroke="#049FD6" stroke-width="2" stroke-miterlimit="10" stroke-linecap="round" stroke-linejoin="round"/>
<path id="Vector_3" d="M6.6239 34.3505L5.42578 28.8751L8.94026 18.0801C8.94026 18.0801 10.9571 18.5873 10.4379 21.6664L8.84441 28.6874L9.9347 33.1244" stroke="#049FD6" stroke-width="2" stroke-miterlimit="10" stroke-linecap="round" stroke-linejoin="round"/>
<path id="Vector_4" d="M10.2144 19.2182L11.1569 16.3027C11.1569 16.3027 13.7688 17.2612 12.8862 20.7398L11.4284 28.3678L12.5946 32.4933" stroke="#049FD6" stroke-width="2" stroke-miterlimit="10" stroke-linecap="round" stroke-linejoin="round"/>
<path id="Vector_5" d="M13.0659 19.2102L13.1977 19.3061C14.4278 20.2086 15.0308 21.7342 14.7513 23.2319L13.9046 27.7488L15.1107 31.9462" stroke="#049FD6" stroke-width="2" stroke-miterlimit="10" stroke-linecap="round" stroke-linejoin="round"/>
</g>
<path id="Vector_6" d="M28.5054 54.0276L20.2823 56.5557L18.0698 51.0323L29.6995 46.8469V49.6465" stroke="#049FD6" stroke-width="2" stroke-miterlimit="10" stroke-linecap="round" stroke-linejoin="round"/>
<path id="Vector_7" d="M19.0244 53.4206L29.6996 49.6465" stroke="#049FD6" stroke-width="2" stroke-miterlimit="10" stroke-linecap="round" stroke-linejoin="round"/>
</g>
</g>
<g id="Group_6">
<g id="Group_7">
<path id="Vector_8" d="M34.3003 46.8458L35.2708 43.4192C36.1454 40.332 38.322 37.776 41.2334 36.4261L43.6376 35.3119C45.0594 34.6529 46.1217 33.4069 46.549 31.9013L47.7112 27.7997L47.6194 27.1088C47.4357 25.7309 48.0786 24.3691 49.2608 23.6382L49.3207 23.6023" stroke="#049FD6" stroke-width="2" stroke-miterlimit="10" stroke-linecap="round" stroke-linejoin="round"/>
<path id="Vector_9" d="M46.1298 40.0204C46.3015 40.0444 46.4693 40.0643 46.637 40.0763C49.4047 40.3199 52.0964 39.0579 53.8058 36.8693C57.3202 32.3644 60 35.176 60 35.176C60 35.176 57.0966 38.6545 55.1237 42.0891C53.7139 44.5373 51.4255 46.4024 48.6858 47.0853C48.5181 47.1292 48.3423 47.1652 48.1666 47.2051C46.3694 47.5765 44.8718 48.7467 44.0371 50.3282" stroke="#049FD6" stroke-width="2" stroke-miterlimit="10" stroke-linecap="round" stroke-linejoin="round"/>
<path id="Vector_10" d="M57.376 34.3495L58.5741 28.8741L55.0596 18.0791C55.0596 18.0791 53.0428 18.5863 53.562 21.6655L55.1555 28.6864L54.0652 33.1235" stroke="#049FD6" stroke-width="2" stroke-miterlimit="10" stroke-linecap="round" stroke-linejoin="round"/>
<path id="Vector_11" d="M53.7856 19.2172L52.8431 16.3018C52.8431 16.3018 50.2312 17.2603 51.1138 20.7388L52.5755 28.3628L51.4093 32.4883" stroke="#049FD6" stroke-width="2" stroke-miterlimit="10" stroke-linecap="round" stroke-linejoin="round"/>
<path id="Vector_12" d="M50.9339 19.2092L50.8022 19.3051C49.5721 20.2077 48.969 21.7333 49.2486 23.2309L50.0953 27.7478L48.8892 31.9452" stroke="#049FD6" stroke-width="2" stroke-miterlimit="10" stroke-linecap="round" stroke-linejoin="round"/>
</g>
<path id="Vector_13" d="M35.4984 54.0267L43.7175 56.5547L45.93 51.0314L34.3003 46.8459V49.6455" stroke="#049FD6" stroke-width="2" stroke-miterlimit="10" stroke-linecap="round" stroke-linejoin="round"/>
<path id="Vector_14" d="M44.9755 53.4196L34.3003 49.6455" stroke="#049FD6" stroke-width="2" stroke-miterlimit="10" stroke-linecap="round" stroke-linejoin="round"/>
</g>
</g>
<path id="Vector_15" d="M36.5288 29.415V35.2259" stroke="#049FD6" stroke-width="2" stroke-miterlimit="10" stroke-linecap="round" stroke-linejoin="round"/>
<path id="Vector_16" d="M27.3516 29.415V35.2259" stroke="#049FD6" stroke-width="2" stroke-miterlimit="10" stroke-linecap="round" stroke-linejoin="round"/>
<path id="Vector_17" d="M36.1494 14.1056C36.6902 11.8152 35.272 9.52006 32.9816 8.97924C30.6912 8.43841 28.396 9.85671 27.8552 12.1471C27.3144 14.4375 28.7327 16.7326 31.0231 17.2734C33.3135 17.8143 35.6086 16.396 36.1494 14.1056Z" stroke="#049FD6" stroke-width="2" stroke-miterlimit="10" stroke-linecap="round" stroke-linejoin="round"/>
<path id="Vector_18" d="M23.8887 33.5641V22.797C23.8887 21.2674 25.1307 20.0254 26.6603 20.0254H37.3395C38.8691 20.0254 40.1112 21.2674 40.1112 22.797V32.5218" stroke="#049FD6" stroke-width="2" stroke-miterlimit="10" stroke-linecap="round" stroke-linejoin="round"/>
</g>
</g>
</svg>
